<svg width="30" height="32" viewBox="0 0 30 32" fill="none" xmlns="http://www.w3.org/2000/svg">
<g clip-path="url(#clip0_220_151)">
<mask id="mask0_220_151" style="mask-type:alpha" maskUnits="userSpaceOnUse" x="-1" y="0" width="32" height="32">
<rect x="-1" width="32" height="32" fill="#D9D9D9"/>
</mask>
<g mask="url(#mask0_220_151)">
<path d="M22.0556 5.70465C12.1111 2.55354 3.55556 10.6486 0 17.6571V32.0001H17.1667C18.4444 29.6096 22.3333 21.9491 22.8889 20.8082C23.6111 19.45 24.8333 16.4075 27.7222 13.2564C30.3889 10.3226 22.0556 5.70465 22.0556 5.70465Z" fill="white"/>
<path d="M25.8334 15.5381L25.7778 15.5924C24.7223 16.842 20.7778 24.6654 19.5556 26.3496C18.6112 27.7079 14.6667 29.0661 11.2778 31.9999H19.7223C22.6112 31.9999 25.0556 31.1306 27.0556 29.3921C29.0001 27.7079 30.0001 25.4804 30.0001 22.7639C30.0001 19.5585 28.6112 17.168 25.8334 15.5381Z" fill="#F2B024"/>
<path d="M29.0556 9.12733C29.0556 6.51952 27.8333 4.23769 25.8889 2.55348C23.9444 0.86927 21.5556 0 18.7222 0H0V28.1426C0.666667 26.7301 2 25.2632 4.55556 23.9593C8.55556 22.0034 15.9444 19.2326 15.9444 19.2326C19.2222 17.7114 19.8333 18.2547 19.8889 18.3633C20.2222 18.635 20.3889 19.0696 19.7778 19.8845C18.5 21.5688 11.6667 24.0679 10.8889 27.9253C11.0556 27.3277 11.6111 25.9694 14.1667 24.4482C17.4444 22.4924 22.1111 20.4278 20.7222 17.82C20.7222 17.82 23.8889 12.3328 26.6667 12.0068C27.6111 11.8981 28.0556 12.4958 27.6667 13.2564C28.8333 12.1154 29.0556 10.7029 29.0556 9.12733ZM10.0556 21.1341C10.0556 21.1341 11.1667 17.82 11.8889 15.4839C12.6667 13.039 13.1111 10.8659 15.5556 11.3005C15.5556 11.3005 15.1667 12.0068 14.1111 15.4839C13.0556 18.961 12.6667 19.9932 12.6667 19.9932L10.0556 21.1341ZM13.3333 19.7216C13.3333 19.7216 14.6667 15.4839 15.5 12.7674C16.3889 9.88795 17.2222 7.60611 20.1111 8.14941C20.1111 8.14941 18.9444 9.01868 17.6667 13.1477C16.3889 17.2224 16.1667 18.472 16.1667 18.472L13.3333 19.7216ZM22.3333 9.18166C21.2778 11.0289 20.3889 17.6027 20.3889 17.6027C20.3889 17.6027 19.6667 16.9508 17 18.0917C17 18.0917 19.4444 5.81324 22.7778 7.38879C22.7778 7.38879 23.3889 7.38879 22.3333 9.18166Z" fill="#191980"/>
</g>
</g>
<defs>
<clipPath id="clip0_220_151">
<rect width="30" height="32" fill="white"/>
</clipPath>
</defs>
</svg>
